<svg width="18" height="17" viewBox="0 0 18 17" fill="none" xmlns="http://www.w3.org/2000/svg">
<path fill-rule="evenodd" clip-rule="evenodd" d="M6.50033 11.3334C6.76085 11.3334 7.01487 11.4148 7.22687 11.5662L11.0837 14.3211V12.5834C11.0837 11.893 11.6433 11.3334 12.3337 11.3334H15.667C15.8971 11.3334 16.0837 11.1468 16.0837 10.9167V1.75004C16.0837 1.51992 15.8971 1.33337 15.667 1.33337H2.33366C2.10354 1.33337 1.91699 1.51992 1.91699 1.75004V10.9167C1.91699 11.1468 2.10354 11.3334 2.33366 11.3334H6.50033ZM12.3337 15.9404C12.3337 16.2793 11.9506 16.4764 11.6748 16.2794L6.50033 12.5834H2.33366C1.41318 12.5834 0.666992 11.8372 0.666992 10.9167V1.75004C0.666992 0.829566 1.41318 0.083374 2.33366 0.083374H15.667C16.5875 0.083374 17.3337 0.829566 17.3337 1.75004V10.9167C17.3337 11.8372 16.5875 12.5834 15.667 12.5834H12.3337V15.9404Z" fill="white"/>
</svg>
