<svg width="13" height="12" viewBox="0 0 13 12" fill="none" xmlns="http://www.w3.org/2000/svg">
<path fill-rule="evenodd" clip-rule="evenodd" d="M6.49991 2.34795L5.63798 4.49434C5.42937 5.01381 4.94184 5.36802 4.38334 5.40589L2.07565 5.56236L3.85064 7.04538C4.28021 7.40429 4.46643 7.97743 4.32986 8.52029L3.76556 10.7634L5.7245 9.53355C6.19859 9.23591 6.80122 9.23591 7.27531 9.53355L9.23425 10.7634L8.66995 8.52029C8.53338 7.97743 8.7196 7.4043 9.14918 7.04538L10.9242 5.56236L8.61647 5.40589C8.05797 5.36802 7.57044 5.01381 7.36184 4.49434L6.49991 2.34795ZM7.04122 1.34789C6.84528 0.859948 6.15453 0.859949 5.95859 1.34789L4.826 4.16828C4.74256 4.37606 4.54754 4.51775 4.32414 4.5329L1.29181 4.7385C0.767198 4.77407 0.553746 5.43102 0.957255 5.76815L3.28961 7.71685C3.46144 7.86042 3.53593 8.08967 3.4813 8.30682L2.73981 11.2543C2.61152 11.7642 3.17035 12.1702 3.61568 11.8906L6.18974 10.2746C6.37938 10.1556 6.62043 10.1556 6.81007 10.2746L9.38414 11.8906C9.82946 12.1702 10.3883 11.7642 10.26 11.2543L9.51851 8.30682C9.46388 8.08967 9.53837 7.86042 9.7102 7.71685L12.0426 5.76815C12.4461 5.43102 12.2326 4.77407 11.708 4.7385L8.67567 4.5329C8.45227 4.51775 8.25725 4.37606 8.17381 4.16828L7.04122 1.34789Z" fill="#ffffff"/>
</svg>
