<svg width="12" height="12" viewBox="0 0 12 12" fill="none" xmlns="http://www.w3.org/2000/svg">
<path fill-rule="evenodd" clip-rule="evenodd" d="M0.698613 11.4803C0.40572 11.1874 0.40572 10.7125 0.698613 10.4196L10.5981 0.520146C10.891 0.227253 11.3659 0.227253 11.6588 0.520146C11.9517 0.813039 11.9517 1.28791 11.6588 1.58081L1.75927 11.4803C1.46638 11.7732 0.991506 11.7732 0.698613 11.4803Z" fill="#4C4C4C"/>
<path fill-rule="evenodd" clip-rule="evenodd" d="M11.6589 11.4803C11.366 11.7732 10.8911 11.7732 10.5982 11.4803L0.698704 1.58081C0.405811 1.28791 0.405811 0.81304 0.698704 0.520147C0.991597 0.227253 1.46647 0.227254 1.75936 0.520147L11.6589 10.4196C11.9518 10.7125 11.9518 11.1874 11.6589 11.4803Z" fill="#4C4C4C"/>
</svg>
