<svg width="19" height="16" viewBox="0 0 19 16" fill="none" xmlns="http://www.w3.org/2000/svg">
<g clip-path="url(#clip0)">
<path d="M13.2695 0.726011C15.1124 0.479435 16.9811 1.90698 17.2667 3.73683C17.656 6.28045 18.0453 8.82406 18.4476 11.3547C18.5385 11.9647 18.5125 12.6135 18.227 13.1716C17.5781 14.5083 16.0857 15.2999 14.6322 15.3129C10.9985 15.3129 7.36471 15.3129 3.73097 15.3129C1.92708 15.248 0.382736 13.5609 0.512512 11.757C0.629311 9.75846 0.823976 7.7599 1.07055 5.76134C1.20033 4.67122 1.42095 3.51621 2.1477 2.65968C2.58894 2.1276 3.23782 1.81613 3.91266 1.73827C7.04027 1.40085 10.1549 1.07641 13.2695 0.726011ZM5.15851 3.20474C4.57452 3.25665 3.97755 3.51621 3.6531 4.02233C3.0172 4.9697 2.96529 6.13769 2.83551 7.22781C2.73169 8.26603 2.60191 9.29126 2.56298 10.3425C2.53703 11.3417 3.21186 12.3021 4.14625 12.6395C5.00278 12.9639 5.93717 12.7822 6.83263 12.8601C8.87012 12.8861 10.8946 12.912 12.9321 12.899C13.2436 12.8861 13.594 12.951 13.8795 12.7952C14.5673 12.7303 15.307 12.5357 15.7353 11.9647C16.1765 11.3807 16.1246 10.589 15.9949 9.90121C15.8132 9.01873 15.7223 8.12327 15.5147 7.25377C15.4628 6.64382 15.3849 6.02089 15.1643 5.4369C15.1902 4.65824 14.9696 3.84065 14.3986 3.28261C13.8665 2.71159 13.0749 2.36119 12.2832 2.40013C9.90833 2.65968 7.53342 2.93221 5.15851 3.20474Z" fill="#888888"/>
<path d="M5.15932 3.20481C7.53423 2.9193 9.92212 2.65975 12.297 2.38722C13.0887 2.34829 13.8803 2.69868 14.4124 3.2697C14.9704 3.82774 15.191 4.65831 15.1781 5.42399C14.6979 4.74915 13.9322 4.20409 13.0627 4.28196C11.168 4.46364 9.28621 4.71022 7.40445 4.93084C6.82046 4.98275 6.22349 5.26826 5.97691 5.81332C5.48376 6.79962 5.50972 7.92868 5.36696 8.97986C5.32803 9.71959 5.14634 10.4723 5.27612 11.212C5.47078 12.0945 6.32731 12.7823 7.23575 12.7693C7.92356 12.7693 8.61138 12.7953 9.29919 12.7434C10.8306 12.7953 12.3619 12.7564 13.9063 12.7693C13.6207 12.9251 13.2833 12.8602 12.9589 12.8732C10.9214 12.8732 8.88391 12.8472 6.85939 12.8342C5.95096 12.7693 5.01657 12.964 4.16004 12.6396C3.22565 12.3021 2.53784 11.3418 2.57677 10.3425C2.6157 9.30431 2.74548 8.26609 2.8493 7.22788C2.97908 6.13776 3.03099 4.96977 3.65391 4.03538C3.97836 3.51627 4.56235 3.25672 5.15932 3.20481Z" fill="#ADADAD"/>
<path d="M7.40452 4.94376C9.28628 4.72314 11.181 4.47656 13.0628 4.29488C13.9323 4.21701 14.685 4.77505 15.1781 5.43691C15.3988 6.0209 15.4766 6.64383 15.5285 7.25378C15.1522 6.7217 14.5552 6.2545 13.8544 6.3713C12.4658 6.52703 11.0772 6.68276 9.70157 6.86445C9.07864 6.91636 8.67633 7.4744 8.55953 8.04542C8.39082 8.88896 8.35189 9.74549 8.24807 10.602C8.19616 11.1081 8.11829 11.6792 8.44274 12.1204C8.62442 12.4448 9.00077 12.5746 9.28628 12.7693C8.59847 12.8212 7.91065 12.7952 7.22284 12.7952C6.3144 12.8082 5.45788 12.1204 5.26321 11.2379C5.14641 10.4982 5.31512 9.74549 5.35406 9.00576C5.49681 7.9416 5.47085 6.81254 5.964 5.83922C6.22356 5.28118 6.82053 4.99567 7.40452 4.94376Z" fill="#D7D7D7"/>
</g>
<defs>
<clipPath id="clip0">
<rect width="18" height="14.5999" fill="white" transform="translate(0.5 0.700195)"/>
</clipPath>
</defs>
</svg>
