<svg width="19" height="18" viewBox="0 0 19 18" fill="none" xmlns="http://www.w3.org/2000/svg">
<g clip-path="url(#clip0)">
<path d="M4.84403 10.9563H6.81712V20.2396C6.81712 20.4229 6.94707 20.5714 7.10745 20.5714H10.4529C10.6133 20.5714 10.7432 20.4229 10.7432 20.2396V11.0001H13.0114C13.1589 11.0001 13.283 10.8736 13.2999 10.7062L13.6444 7.28852C13.6538 7.19449 13.6277 7.10033 13.5727 7.02979C13.5176 6.95918 13.4387 6.91877 13.356 6.91877H10.7433V4.77642C10.7433 4.13061 11.0476 3.80313 11.6477 3.80313C11.7333 3.80313 13.356 3.80313 13.356 3.80313C13.5164 3.80313 13.6463 3.65455 13.6463 3.47133V0.334253C13.6463 0.150968 13.5164 0.0024553 13.356 0.0024553H11.0018C10.9852 0.00152627 10.9483 0 10.8939 0C10.4855 0 9.06561 0.0916423 7.94404 1.27085C6.70134 2.5776 6.87409 4.14222 6.91537 4.4135V6.9187H4.84403C4.68366 6.9187 4.55371 7.06722 4.55371 7.2505V10.6245C4.55371 10.8078 4.68366 10.9563 4.84403 10.9563Z" fill="#888888"/>
</g>
<defs>
<clipPath id="clip0">
<rect width="18" height="18" fill="white" transform="translate(0.0996094)"/>
</clipPath>
</defs>
</svg>
