<svg width="14" height="14" viewBox="0 0 14 14" fill="none" xmlns="http://www.w3.org/2000/svg">
<path d="M6.55174 0.632205C6.71746 0.233765 7.28189 0.233763 7.44761 0.632203L8.93901 4.21795C9.00887 4.38592 9.16684 4.50069 9.34818 4.51523L13.2193 4.82557C13.6494 4.86006 13.8239 5.39686 13.4961 5.6776L10.5467 8.20406C10.4086 8.32241 10.3483 8.50811 10.3905 8.68506L11.2915 12.4626C11.3917 12.8824 10.935 13.2141 10.5668 12.9892L7.25256 10.9649C7.0973 10.8701 6.90205 10.8701 6.74679 10.9649L3.43258 12.9892C3.06432 13.2141 2.60768 12.8824 2.70781 12.4626L3.60889 8.68506C3.6511 8.50811 3.59076 8.32241 3.4526 8.20406L0.503223 5.6776C0.175495 5.39686 0.349913 4.86006 0.780062 4.82557L4.65117 4.51523C4.83251 4.50069 4.99048 4.38592 5.06034 4.21795L6.55174 0.632205Z" fill="white"/>
</svg>
