<svg width="18" height="18" viewBox="0 0 18 18" fill="none" xmlns="http://www.w3.org/2000/svg">
<path fill-rule="evenodd" clip-rule="evenodd" d="M5.08398 0.720215C2.32256 0.720215 0.0839844 2.95879 0.0839844 5.72021C0.0839844 8.48164 2.32256 10.7202 5.08398 10.7202C7.84541 10.7202 10.084 8.48164 10.084 5.72021C10.084 2.95879 7.84541 0.720215 5.08398 0.720215ZM13.1564 5.72021C11.7757 5.72021 10.6564 6.8395 10.6564 8.22021C10.6564 9.60093 11.7757 10.7202 13.1564 10.7202C14.5371 10.7202 15.6564 9.60093 15.6564 8.22021C15.6564 6.8395 14.5371 5.72021 13.1564 5.72021ZM10.084 14.2795C10.084 12.6227 11.4271 11.2795 13.084 11.2795C14.7408 11.2795 16.084 12.6227 16.084 14.2795C16.084 15.9364 14.7408 17.2795 13.084 17.2795C11.4271 17.2795 10.084 15.9364 10.084 14.2795ZM16.7288 4.02637C16.0384 4.02637 15.4788 4.58601 15.4788 5.27637C15.4788 5.96672 16.0384 6.52637 16.7288 6.52637C17.4191 6.52637 17.9788 5.96672 17.9788 5.27637C17.9788 4.58601 17.4191 4.02637 16.7288 4.02637Z" fill="#888888"/>
</svg>
