<svg width="18" height="17" viewBox="0 0 18 17" fill="none" xmlns="http://www.w3.org/2000/svg">
<path fill-rule="evenodd" clip-rule="evenodd" d="M2.40687 3.17684C1.75466 3.81698 1.29199 4.78036 1.29199 6.13069C1.29199 8.27092 2.58761 10.082 4.32291 11.7038C5.18351 12.5081 6.125 13.241 7.02329 13.9281C7.11279 13.9966 7.20207 14.0647 7.29093 14.1326C7.90159 14.5988 8.49264 15.05 9.00033 15.4817C9.50802 15.05 10.0991 14.5988 10.7097 14.1326C10.7986 14.0647 10.8879 13.9966 10.9774 13.9281C11.8756 13.241 12.8171 12.5081 13.6777 11.7038C15.413 10.082 16.7087 8.27092 16.7087 6.13069C16.7087 4.78036 16.246 3.81698 15.5938 3.17684C14.9329 2.52814 14.0402 2.17549 13.1323 2.12504C12.2219 2.07444 11.3369 2.32974 10.6917 2.84346C10.0611 3.3456 9.62533 4.11961 9.62533 5.20457C9.62533 5.54975 9.3455 5.82957 9.00033 5.82957C8.65515 5.82957 8.37533 5.54975 8.37533 5.20457C8.37533 4.11961 7.93953 3.3456 7.30892 2.84346C6.66376 2.32974 5.77878 2.07444 4.86834 2.12504C3.9605 2.17549 3.0678 2.52814 2.40687 3.17684ZM9.00033 2.88955C8.75459 2.49286 8.44507 2.15026 8.08756 1.8656C7.17023 1.13515 5.97188 0.811784 4.79898 0.876964C3.62349 0.942289 2.43285 1.39985 1.53128 2.28474C0.620995 3.17818 0.0419922 4.47176 0.0419922 6.13069C0.0419922 8.80527 1.66305 10.9289 3.46941 12.617C4.37964 13.4677 5.36523 14.2336 6.26382 14.921C6.35209 14.9885 6.43933 15.0551 6.52547 15.1209C7.32883 15.7344 8.03584 16.2744 8.5756 16.7744C8.81524 16.9964 9.18541 16.9964 9.42505 16.7744C9.96482 16.2744 10.6718 15.7344 11.4752 15.1209C11.5613 15.0551 11.6486 14.9885 11.7368 14.921C12.6354 14.2336 13.621 13.4677 14.5312 12.617C16.3376 10.9289 17.9587 8.80527 17.9587 6.13069C17.9587 4.47176 17.3797 3.17818 16.4694 2.28474C15.5678 1.39985 14.3772 0.942289 13.2017 0.876964C12.0288 0.811784 10.8304 1.13515 9.91309 1.8656C9.55559 2.15026 9.24607 2.49286 9.00033 2.88955Z" fill="white"/>
</svg>
