<svg width="19" height="18" viewBox="0 0 19 18" fill="none" xmlns="http://www.w3.org/2000/svg">
<g clip-path="url(#clip0)">
<path d="M13.3277 0H5.07262C2.38592 0 0.200195 2.18573 0.200195 4.87243V13.1277C0.200195 15.8142 2.38592 18 5.07262 18H13.3279C16.0144 18 18.2002 15.8142 18.2002 13.1277V4.87243C18.2002 2.18573 16.0144 0 13.3277 0V0ZM9.20018 13.9217C6.48629 13.9217 4.27845 11.7139 4.27845 8.99998C4.27845 6.28609 6.48629 4.07825 9.20018 4.07825C11.9141 4.07825 14.1219 6.28609 14.1219 8.99998C14.1219 11.7139 11.9141 13.9217 9.20018 13.9217ZM14.2396 5.23896C13.4376 5.23896 12.7853 4.58665 12.7853 3.78465C12.7853 2.98265 13.4376 2.3302 14.2396 2.3302C15.0416 2.3302 15.694 2.98265 15.694 3.78465C15.694 4.58665 15.0416 5.23896 14.2396 5.23896Z" fill="#888888"/>
<path d="M9.20048 5.1333C7.06858 5.1333 5.33398 6.86776 5.33398 8.99979C5.33398 11.1317 7.06858 12.8663 9.20048 12.8663C11.3325 12.8663 13.067 11.1317 13.067 8.99979C13.067 6.86776 11.3325 5.1333 9.20048 5.1333Z" fill="#888888"/>
<path d="M14.2399 3.38574C14.0199 3.38574 13.8408 3.56482 13.8408 3.78482C13.8408 4.00482 14.0199 4.1839 14.2399 4.1839C14.46 4.1839 14.6391 4.00496 14.6391 3.78482C14.6391 3.56468 14.46 3.38574 14.2399 3.38574Z" fill="#888888"/>
</g>
<defs>
<clipPath id="clip0">
<rect width="18" height="18" fill="white" transform="translate(0.200195)"/>
</clipPath>
</defs>
</svg>
