<svg width="141" height="56" viewBox="0 0 141 56" fill="none" xmlns="http://www.w3.org/2000/svg">
<g clip-path="url(#clip0)">
<path d="M97.2008 28.7944C96.4409 28.7253 95.7501 28.7944 95.6119 28.1036C95.5428 27.8963 95.5428 27.5509 95.5428 27.0673C95.5428 24.8566 96.1646 20.1589 96.7864 16.2212C97.2009 13.6651 98.2371 8.4147 98.3753 7.79295C98.8589 6.20402 98.0299 5.30593 96.1646 5.4441C90.6379 5.99677 85.1803 5.51318 82.2097 6.34219C80.9662 6.6876 80.828 7.65478 80.9662 8.13836C81.1734 8.62195 81.8642 8.27653 82.6242 7.93111C83.8677 7.37844 85.3875 7.17119 83.1078 10.2109C79.999 14.3559 75.7158 23.2677 73.8505 28.2417C73.5051 29.2089 73.2288 29.6234 71.5017 29.9688C70.7418 30.107 69.6364 30.3143 68.1166 30.5215C66.8731 30.7288 66.5967 31.2814 66.1131 32.3177L65.0769 34.7356C65.0769 34.7356 63.0735 39.4333 62.9353 40.0551C62.3826 42.473 64.9387 42.8184 65.3532 41.0222C65.4914 40.4696 66.1822 36.4627 66.5276 35.3574C66.6658 34.8047 67.0803 33.6994 68.6002 33.3539C73.9887 32.2486 90.9833 31.4887 95.9573 31.765C97.6844 31.8341 97.5463 32.5249 97.4081 33.5612C97.1318 36.1864 95.6119 38.6734 95.1283 39.5715C93.8157 42.0585 96.3028 42.1967 97.1318 39.986C98.3062 36.67 99.9642 33.2158 100.241 32.1795C100.793 29.8998 99.4806 28.9326 97.2008 28.7944ZM94.852 9.79637C94.6448 11.109 92.9177 23.6131 92.6413 26.9292C92.5032 28.5181 92.0887 28.7944 90.5688 28.8635C87.3219 28.9326 81.0352 29.278 77.3738 29.6234C75.923 29.7616 75.5085 29.278 75.7158 28.1036C76.4757 23.8895 81.1734 15.4612 84.6276 10.9017C85.3875 9.86546 86.4929 8.48378 88.7035 7.65478C90.0161 7.17119 91.536 7.03302 92.9177 7.03302C94.7138 7.17119 95.1974 7.30936 94.852 9.79637Z" fill="#EB4C32"/>
<path d="M140.309 26.7908C138.443 27.2744 135.611 28.1034 136.578 23.8202C136.924 22.3695 137.131 21.6786 137.131 20.3661C137.131 18.5008 135.473 18.7771 135.542 20.2279C135.611 21.3332 135.542 23.8202 133.677 25.6855C131.88 27.4817 130.222 27.1363 130.084 24.8565C129.946 22.784 131.328 19.3298 134.16 19.1226C135.887 18.9844 135.266 17.5336 133.538 17.9481C130.499 18.639 128.357 21.5405 127.943 24.9256C127.874 25.5473 127.805 26.2382 127.874 26.7908C124.834 28.3798 124.35 27.3435 124.35 26.5145C124.35 26.1691 124.627 23.3367 124.834 20.6424C125.11 17.05 123.245 15.8756 121.034 21.2641C120.62 22.3004 119.514 24.7183 119.445 24.9256C117.787 28.3107 117.718 26.4454 118.202 24.5802C118.409 23.7512 119.031 20.9878 119.169 20.5042C120.067 16.0829 118.409 14.2176 116.268 17.81C114.748 19.2607 111.984 20.1588 110.741 19.9516C110.603 19.1225 109.843 18.708 109.152 18.708H109.083C109.083 18.639 109.014 18.639 109.014 18.639C108.53 17.7409 106.941 17.4645 105.421 18.1554C102.934 19.3298 101.553 21.7477 101 23.9584C99.6874 29.3469 104.523 32.2485 108.392 26.3073C109.29 24.9256 109.843 23.6821 110.119 21.8168C111.432 21.6096 113.781 20.7115 115.439 19.3989C114.264 22.0241 113.09 24.442 112.192 26.4454C111.086 28.7252 108.737 33.4229 107.701 35.15C106.389 37.2916 109.428 38.9496 110.257 36.1172C110.672 34.7355 112.399 28.9324 113.228 26.9981C114.195 24.7874 115.439 22.3004 116.613 20.1588C117.718 18.1554 118.409 18.639 118.064 20.5042C117.787 22.1622 116.889 24.8565 116.337 27.0672C115.508 30.5905 117.787 32.0412 119.653 27.758C119.86 27.3435 121.311 23.3367 122.071 21.7477C122.761 20.2279 123.521 20.2279 123.245 21.955C123.038 23.0603 122.554 26.2382 122.485 26.7218C122.001 29.8305 123.659 30.0378 124.834 29.6233C126.561 28.9324 127.528 28.2416 128.012 27.6199C128.495 29.5542 130.015 30.3141 133.262 27.6889C133.884 27.2053 134.091 27.5508 135.404 28.4489C136.647 29.3469 138.927 28.5179 139.687 28.1034C141.621 26.9981 141.069 26.5836 140.309 26.7908ZM106.872 25.4783C104.109 28.2416 102.658 26.1 103.142 23.6821C103.418 22.0932 104.454 20.1588 105.767 19.3989C106.941 18.708 107.563 19.1916 107.977 19.2607C107.77 19.5371 107.632 19.8825 107.632 20.297C107.632 20.9187 108.185 21.4714 109.014 21.6786C108.668 23.0603 107.77 24.5802 106.872 25.4783Z" fill="#EB4C32"/>
<path d="M63.3495 25.8929C61.0006 26.3765 60.0335 26.3074 60.1026 24.7876C60.1026 24.4422 60.3789 21.6097 60.5171 18.9155C60.6552 14.9777 58.859 13.6651 56.6484 19.5372C56.2339 20.5735 55.7503 21.8861 55.2667 23.0605C54.5068 24.9948 53.6778 24.7185 54.0232 22.646C54.2304 21.4716 54.3686 20.7807 54.5759 19.4681C55.3358 15.4613 54.9904 14.0796 54.0923 13.9414C53.3323 13.8033 52.0888 14.4941 50.2236 18.7773C49.2564 21.057 48.2201 23.4059 47.253 25.4093C44.9732 27.4128 43.7297 25.8238 44.006 23.7513C44.2824 22.0242 45.7331 20.0899 45.8713 18.2937C45.9404 17.6029 45.3186 16.8429 44.3515 17.5338C43.0389 18.5009 41.6572 26.0311 38.6175 25.5475C37.7194 25.2712 37.6503 24.0277 37.9958 22.5769C39.4465 20.6425 40.4137 19.0536 40.69 18.4319C41.2427 17.1193 41.5881 16.2212 40.6209 16.083H40.5518H40.4828H40.4137H40.3446C39.9301 16.1521 39.5156 16.5666 39.2393 16.912C38.4103 17.741 36.545 20.7807 35.8542 23.5441C34.4725 25.4093 32.8835 27.3437 30.9492 29.0017C29.7057 30.0379 29.5675 30.3834 29.9129 29.278C30.1202 28.5872 30.5347 27.4818 30.9492 26.2383C31.0874 25.8929 33.6435 19.33 33.2981 17.6029C33.0908 16.4975 31.3637 16.7739 31.5019 17.6719C31.9164 20.988 28.8767 25.962 25.9752 25.3402C25.2843 25.133 25.1462 24.304 25.2843 23.2677C27.3568 20.9189 29.0839 18.9155 30.3275 17.8101C30.3965 17.741 30.4656 17.6719 30.5347 17.6029C31.4328 16.8429 30.3274 15.8758 28.1168 16.7739C27.7023 16.9811 27.2187 17.2574 26.8042 17.6029C25.7679 18.4319 24.7317 19.6754 24.0408 21.057C23.6954 21.817 23.4191 22.5769 23.2118 23.3368C21.9683 25.4093 20.034 27.8273 16.6489 30.4524C12.3657 33.6994 6.28629 35.2192 4.28286 30.8669C2.76302 27.1364 6.28629 21.1952 9.94773 18.8464C12.5729 17.1884 14.2309 16.8429 16.3034 16.4284C18.376 16.0139 16.9252 13.6651 15.6126 14.3559C13.5401 15.5303 12.9874 15.254 12.1584 14.5632C9.2569 11.8689 9.87865 9.52006 12.1584 8.00021C13.1947 7.30938 14.5073 6.68762 15.6126 6.48037C18.445 5.78953 19.0668 7.10212 17.7542 8.20747C16.0271 9.65822 17.3397 11.3853 18.8595 9.58914C19.205 9.17464 19.9649 8.20746 20.5176 7.24029C21.4847 5.37503 20.863 3.71702 16.5107 4.82236C14.9218 5.23686 13.1947 5.99678 11.6748 6.89487C6.49354 10.0727 7.18438 13.3197 9.60231 15.7376C10.2241 16.3594 10.2932 16.9811 9.80957 17.2574C1.79585 21.7479 -1.45109 28.2418 0.552339 32.3177C3.03936 37.4299 11.7439 36.3246 18.0996 30.5906C19.7576 29.0708 21.4156 27.3437 22.9355 25.6857C22.9355 26.3765 23.1427 27.0673 23.6263 27.4128C24.5244 28.0345 26.3206 27.5509 28.2549 26.0311C29.2912 25.133 30.0511 24.5112 29.6366 25.8238C29.4984 26.1692 29.4294 26.4456 29.4294 26.5838C28.9458 27.9654 28.1168 30.107 27.9095 30.7979C27.5641 31.8341 27.1496 31.9723 26.2515 32.6631C22.521 35.5646 17.9615 39.5715 15.958 43.3711C10.6386 53.4573 18.9286 54.2173 23.8336 44.8219C25.1462 42.2658 26.7351 37.9826 28.324 33.8375C28.6694 32.8704 29.7057 31.3505 31.4328 29.8307C33.0217 28.449 34.4034 26.9983 35.6469 25.6166C35.716 26.7219 36.1305 27.5509 37.2358 27.8963C38.8248 28.3108 40.3446 27.1364 41.2427 26.3074C41.7954 25.7547 42.4171 25.8929 42.8316 26.5838C43.2461 27.2746 43.5224 28.0345 44.6278 27.8963C45.3186 27.8273 46.0785 27.4818 46.7003 26.9292C45.8022 28.8635 45.0423 30.3143 44.6278 31.0742C42.8316 34.3211 45.5259 35.7028 46.5621 32.3177C46.9766 30.936 49.3946 24.0277 51.6743 19.33C52.8488 16.7739 53.9541 17.0502 53.4014 19.4681C53.1942 20.3662 52.9178 21.4716 52.7106 22.646C51.0526 30.5906 54.5068 28.5872 55.6812 25.4784C56.3029 23.7513 57.4774 20.7807 57.7537 20.0208C58.5136 18.1555 59.2736 18.3628 58.9281 20.228C58.7209 21.3334 58.0991 24.5112 57.961 24.9948C57.4083 28.1036 58.9281 28.3108 60.1716 28.0345C63.9022 27.2055 64.1094 25.7547 63.3495 25.8929ZM26.1133 35.7028C24.6626 39.2261 23.2118 42.5421 21.8992 44.4765C18.445 49.5887 14.6454 49.1051 17.4779 44.131C18.9286 41.5059 22.1756 38.1898 25.5607 35.1501C26.5969 34.2521 26.5278 34.5975 26.1133 35.7028Z" fill="#EB4C32"/>
</g>
<defs>
<clipPath id="clip0">
<rect width="141" height="47.0461" fill="white" transform="translate(0 4.47705)"/>
</clipPath>
</defs>
</svg>
