<svg width="21" height="20" viewBox="0 0 21 20" fill="none" xmlns="http://www.w3.org/2000/svg">
<path d="M10.6324 14.1197C12.4509 14.0957 14.1259 13.4258 15.5615 12.1576C15.8008 11.9662 15.8486 11.7987 15.6811 11.5116C15.3462 10.9612 15.5137 10.3631 16.0161 10.0999C16.5186 9.83665 17.045 9.98022 17.38 10.5305C18.05 11.6312 18.696 12.7558 19.3421 13.8804C19.6531 14.4068 19.4856 15.005 19.0071 15.2682C18.5285 15.5553 17.9543 15.3878 17.6432 14.8614C17.4518 14.5504 17.2604 14.2393 17.0929 13.9283C16.9732 13.6651 16.8775 13.6411 16.6382 13.8565C15.3462 14.9571 13.8866 15.675 12.2117 15.9621C9.31643 16.4646 6.73226 15.7707 4.45915 13.9043C4.17202 13.6651 4.07631 13.7129 3.90882 14.024C3.76525 14.335 3.57383 14.6461 3.38241 14.9332C3.0235 15.3878 2.47317 15.5314 1.99462 15.2682C1.54 15.005 1.34858 14.4068 1.63571 13.9283C2.30568 12.7558 2.97565 11.6073 3.66954 10.4588C3.9806 9.95629 4.55486 9.83665 5.00948 10.1238C5.46411 10.387 5.6316 10.9852 5.32054 11.4637C5.10519 11.7987 5.2009 11.9901 5.46411 12.2055C6.92368 13.4736 8.59861 14.1197 10.6324 14.1197Z" fill="#888888"/>
<path d="M13.9342 3.87891C14.8195 3.87891 15.5613 4.62066 15.5613 5.50598C15.5613 6.41522 14.7956 7.15698 13.8863 7.13305C13.001 7.10912 12.2832 6.39129 12.2832 5.48205C12.3071 4.59673 13.0489 3.87891 13.9342 3.87891Z" fill="#888888"/>
<path d="M8.6707 5.50598C8.6707 6.41522 7.95288 7.13305 7.06756 7.15697C6.15831 7.15697 5.39263 6.41522 5.41656 5.50598C5.41656 4.62066 6.15831 3.87891 7.04363 3.87891C7.95288 3.87891 8.6707 4.62066 8.6707 5.50598Z" fill="#888888"/>
</svg>
