<svg width="90" height="86" viewBox="0 0 90 86" fill="none" xmlns="http://www.w3.org/2000/svg">
    <path fill-rule="evenodd" clip-rule="evenodd" d="M39.0649 18.2731C36.6238 20.9946 33.1908 23.7742 28.7646 24.914C28.5428 24.971 28.3461 25.0939 28.2032 25.2643C27.8329 25.7061 27.9106 26.3488 28.3765 26.6999C30.8452 28.4115 33.6633 29.6164 36.6507 30.2379C33.295 33.872 28.9241 36.5326 24.0422 37.9129C23.823 37.9696 23.6282 38.0904 23.4858 38.2583C23.1128 38.6979 23.1862 39.3411 23.6499 39.6947C26.4288 41.6244 29.5583 43.0533 32.8822 43.9102C29.1635 47.3464 24.6058 49.8568 19.6152 51.2173C19.3928 51.2748 19.1955 51.3986 19.0527 51.5704C18.684 52.0134 18.7643 52.6559 19.2316 53.0052C21.9508 54.8928 24.9579 56.3761 28.1491 57.4036C24.1035 60.6269 19.3814 62.9983 14.2959 64.3602C14.0746 64.417 13.8783 64.5394 13.7353 64.7093C13.3641 65.1505 13.4404 65.7933 13.9058 66.1451C19.5424 70.0462 26.1231 72.5406 33.0428 73.3991C36.782 74.4299 40.6558 74.9561 44.5499 74.9623C48.4434 74.9577 52.3169 74.4333 56.0563 73.4042C62.9759 72.5457 69.5568 70.0513 75.1933 66.1502C75.3734 66.0144 75.5029 65.8272 75.5627 65.6165C75.7174 65.0716 75.3769 64.511 74.8021 64.3643C69.7158 63.0054 64.9935 60.6342 60.9499 57.4087C64.1412 56.3812 67.1482 54.8979 69.8675 53.0103C70.0477 52.8753 70.1778 52.6893 70.2387 52.4793C70.3962 51.9351 70.0589 51.3728 69.4849 51.2234C64.4954 49.8605 59.9382 47.3506 56.2179 43.9163C59.5447 43.0642 62.6755 41.6338 65.4512 39.6978C65.6307 39.5618 65.7596 39.375 65.8193 39.1646C65.9735 38.6196 65.6327 38.0592 65.0578 37.9129C60.1655 36.5545 55.7901 33.8876 52.4557 30.2318C55.4419 29.6103 58.2588 28.4056 60.7267 26.6948C60.9065 26.5592 61.036 26.3728 61.0963 26.1626C61.2522 25.6181 60.9131 25.0567 60.3387 24.9089C55.9126 23.7739 52.4843 20.9955 50.0482 18.2745C49.8218 18.2511 49.585 18.1784 49.3421 18.0574L45.7833 16.2839C47.9923 19.5304 51.8833 23.9944 57.6005 26.1923C55.3315 27.4081 52.8385 28.202 50.2553 28.5309C50.0519 28.5554 49.8603 28.6343 49.7027 28.7585C49.245 29.119 49.182 29.7631 49.5624 30.1972C52.904 34.22 57.3064 37.3353 62.325 39.2278C59.7094 40.7085 56.8512 41.7646 53.8687 42.3522C53.6663 42.3908 53.4799 42.4836 53.3316 42.6198C52.9041 43.0123 52.8932 43.6591 53.3072 44.0644C57.0374 47.8373 61.6384 50.7398 66.7499 52.5445C64.1682 54.0428 61.3874 55.2084 58.481 56.01C58.2855 56.0636 58.1099 56.1686 57.9747 56.3127C57.5792 56.7344 57.6192 57.3801 58.064 57.7551C62.1284 61.2683 66.8947 63.9733 72.0809 65.7099C67.1171 68.6959 61.532 70.6308 55.707 71.3823C55.6512 71.3893 55.596 71.4001 55.5421 71.4151C48.369 73.4196 40.7384 73.4196 33.5655 71.4151C33.5114 71.4001 33.4563 71.3892 33.4006 71.3823C27.5733 70.6311 21.986 68.6958 17.0202 65.7089C22.2073 63.9704 26.9744 61.2645 31.0408 57.7509C31.1928 57.6228 31.3035 57.4563 31.36 57.271C31.5253 56.729 31.1955 56.1626 30.6238 56.0059C27.7171 55.2043 24.9361 54.0391 22.3539 52.5414C27.4653 50.7374 32.0662 47.8348 35.7954 44.0613C35.9388 43.9209 36.0368 43.7444 36.0776 43.5529C36.1955 42.9999 35.8182 42.4608 35.2349 42.349C32.2532 41.7577 29.3959 40.7008 26.7796 39.2217C31.7874 37.3076 36.1868 34.196 39.5487 30.1901C39.6783 30.0411 39.7607 29.8604 39.7862 29.6688C39.861 29.109 39.4431 28.5977 38.8526 28.5268C36.2708 28.1957 33.7791 27.4017 31.5105 26.1872C37.2308 23.9906 41.1309 19.5173 43.3438 16.2705L39.7582 18.0574C39.5199 18.1761 39.2875 18.2484 39.0649 18.2731Z" fill="white"/>
    <path d="M44.496 83.3728C41.9563 83.3637 39.4501 82.7929 37.1587 81.7018C36.7163 81.4951 36.4804 81.0075 36.5936 80.534L38.1312 74.0954C38.2489 73.5405 38.796 73.1856 39.3534 73.3028C39.9105 73.4201 40.2669 73.965 40.1492 74.52C40.1456 74.5371 40.1415 74.5541 40.1369 74.571L38.7963 80.1777C42.4756 81.7227 46.6263 81.7194 50.3031 80.1684L48.9625 74.5709C48.8165 74.0225 49.1445 73.4602 49.6949 73.3149C50.2455 73.1694 50.8101 73.4961 50.9561 74.0443C50.9605 74.0612 50.9647 74.0782 50.9683 74.0953L52.5058 80.5339C52.6201 81.0119 52.3785 81.5034 51.9294 81.7068C49.6003 82.7869 47.0652 83.3551 44.496 83.3728V83.3728Z" fill="white"/>
    <path d="M46.2809 6.5787L46.5453 7.07831L47.1054 7.15423L50.8112 7.65653L48.1838 10.0452L47.7313 10.4566L47.8418 11.0581L48.4791 14.5239L45.0347 12.835L44.5504 12.5975L44.0661 12.835L40.6218 14.5239L41.2592 11.0581L41.3698 10.4566L40.9173 10.0452L38.2897 7.65651L41.9955 7.15423L42.5557 7.07831L42.82 6.57865L44.5504 3.30843L46.2809 6.5787Z" stroke="white" stroke-width="2.2"/>
    <path d="M39.3998 38.7606C39.3998 39.9834 38.3366 41.0735 36.8998 41.0735C35.4631 41.0735 34.3998 39.9834 34.3998 38.7606C34.3998 37.5378 35.4631 36.4477 36.8998 36.4477C38.3366 36.4477 39.3998 37.5378 39.3998 38.7606Z" stroke="white" stroke-width="2.2"/>
    <path d="M52.0004 45.5865C52.0004 46.8094 50.9371 47.8995 49.5004 47.8995C48.0636 47.8995 47.0004 46.8094 47.0004 45.5865C47.0004 44.3637 48.0636 43.2736 49.5004 43.2736C50.9371 43.2736 52.0004 44.3637 52.0004 45.5865Z" stroke="white" stroke-width="2.2"/>
    <path d="M38.5004 53.2657C38.5004 54.4886 37.4371 55.5787 36.0004 55.5787C34.5636 55.5787 33.5004 54.4886 33.5004 53.2657C33.5004 52.0429 34.5636 50.9528 36.0004 50.9528C37.4371 50.9528 38.5004 52.0429 38.5004 53.2657Z" stroke="white" stroke-width="2.2"/>
    <path d="M58.3002 61.798C58.3002 63.0208 57.237 64.1109 55.8002 64.1109C54.3634 64.1109 53.3002 63.0208 53.3002 61.798C53.3002 60.5751 54.3634 59.485 55.8002 59.485C57.237 59.485 58.3002 60.5751 58.3002 61.798Z" stroke="white" stroke-width="2.2"/>
    <path d="M32.1996 65.211C32.1996 66.4339 31.1364 67.524 29.6996 67.524C28.2629 67.524 27.1996 66.4339 27.1996 65.211C27.1996 63.9882 28.2629 62.8981 29.6996 62.8981C31.1364 62.8981 32.1996 63.9882 32.1996 65.211Z" stroke="white" stroke-width="2.2"/>
    <path d="M48.3998 25.962C48.3998 27.1849 47.3366 28.275 45.8998 28.275C44.4631 28.275 43.3998 27.1849 43.3998 25.962C43.3998 24.7392 44.4631 23.6491 45.8998 23.6491C47.3366 23.6491 48.3998 24.7392 48.3998 25.962Z" stroke="white" stroke-width="2.2"/>
    <path d="M45.6996 66.9173C45.6996 68.1402 44.6364 69.2303 43.1996 69.2303C41.7629 69.2303 40.6996 68.1402 40.6996 66.9173C40.6996 65.6945 41.7629 64.6044 43.1996 64.6044C44.6364 64.6044 45.6996 65.6945 45.6996 66.9173Z" stroke="white" stroke-width="2.2"/>
</svg>
