<svg width="19" height="18" viewBox="0 0 19 18" fill="none" xmlns="http://www.w3.org/2000/svg">
<path d="M9.19663 9.25703C11.5623 9.25703 13.4909 7.32846 13.4909 4.96274C13.4909 2.59703 11.5623 0.668457 9.19663 0.668457C6.83091 0.668457 4.90234 2.57131 4.90234 4.96274C4.90234 7.32846 6.83091 9.25703 9.19663 9.25703ZM9.19663 3.16274C10.1738 3.16274 10.9709 3.95989 10.9709 4.93703C10.9709 5.91417 10.1738 6.71131 9.19663 6.71131C8.21949 6.71131 7.42234 5.91417 7.42234 4.93703C7.42234 3.9856 8.21949 3.16274 9.19663 3.16274Z" fill="#888888"/>
<path d="M10.9195 12.7544C11.7938 12.5487 12.6424 12.2144 13.4138 11.7258C14.0052 11.3658 14.1852 10.5687 13.7995 9.97723C13.4395 9.3858 12.6424 9.2058 12.051 9.59152C10.3024 10.6972 8.01381 10.6972 6.26524 9.59152C5.67381 9.23152 4.90238 9.3858 4.51666 9.97723C4.15666 10.5687 4.31095 11.3401 4.90238 11.7258C5.67381 12.2144 6.52238 12.5487 7.39666 12.7544L5.05666 15.1715C4.56809 15.6601 4.56809 16.4572 5.05666 16.9458C5.31381 17.203 5.62238 17.3058 5.95666 17.3058C6.29095 17.3058 6.59952 17.1772 6.85666 16.9458L9.22238 14.5801L11.5881 16.9458C12.0767 17.4344 12.8738 17.4344 13.3624 16.9458C13.8509 16.4572 13.8509 15.6601 13.3624 15.1715L10.9195 12.7544Z" fill="#888888"/>
</svg>
