<svg width="19" height="18" viewBox="0 0 19 18" fill="none" xmlns="http://www.w3.org/2000/svg">
<path d="M9.64388 0C4.71053 0 2.08691 3.16139 2.08691 6.60855C2.08691 8.20725 2.9802 10.2008 4.41014 10.8331C4.62728 10.931 4.74541 10.8894 4.79379 10.688C4.83654 10.535 5.02442 9.79807 5.11555 9.45043C5.14368 9.33905 5.12905 9.24229 5.03905 9.13766C4.56428 8.58864 4.18738 7.58847 4.18738 6.65018C4.18738 4.24594 6.09885 1.91146 9.35137 1.91146C12.164 1.91146 14.1317 3.73854 14.1317 6.35204C14.1317 9.3053 12.569 11.3484 10.5383 11.3484C9.41437 11.3484 8.57733 10.4663 8.84285 9.37505C9.16349 8.07562 9.79239 6.6783 9.79239 5.74114C9.79239 4.90072 9.31762 4.20544 8.34782 4.20544C7.20365 4.20544 6.27548 5.33837 6.27548 6.85944C6.27548 7.82586 6.61749 8.47838 6.61749 8.47838C6.61749 8.47838 5.48569 13.0506 5.27531 13.9045C4.91979 15.3502 5.32369 17.6914 5.35856 17.8928C5.37994 18.0042 5.50482 18.0391 5.57457 17.9479C5.68595 17.8017 7.05401 15.8497 7.43766 14.4389C7.57716 13.9248 8.14981 11.84 8.14981 11.84C8.52671 12.5207 9.61463 13.0911 10.7734 13.0911C14.2206 13.0911 16.7115 10.0613 16.7115 6.30141C16.6991 2.69675 13.6142 0 9.64388 0Z" fill="#888888"/>
</svg>
