<svg width="19" height="18" viewBox="0 0 19 18" fill="none" xmlns="http://www.w3.org/2000/svg">
<g clip-path="url(#clip0)">
<path d="M17.8934 2.38334C17.7171 2.16856 17.4247 2.08891 17.1648 2.18449L0.65342 8.1513C0.323555 8.27119 0.0920186 8.56191 0.0490346 8.91004C0.00646257 9.25652 0.159173 9.59271 0.445641 9.7862L2.80578 11.3973C3.03443 11.5535 3.32845 11.5702 3.57331 11.441L8.69294 8.74127L4.70284 11.7206C4.51553 11.8606 4.4036 12.0837 4.4036 12.3175V15.0772C4.4036 15.3619 4.55975 15.6227 4.81106 15.7581C5.06278 15.8935 5.36683 15.88 5.60592 15.7224L7.39903 14.533L9.16233 15.7353C9.31683 15.8412 9.50085 15.8969 9.68652 15.8969C9.74928 15.8969 9.81231 15.8905 9.87438 15.8776C10.122 15.8259 10.341 15.673 10.4755 15.4579L17.9458 3.13975C18.0912 2.90258 18.0703 2.59908 17.8934 2.38334Z" fill="#888888"/>
</g>
<defs>
<clipPath id="clip0">
<rect width="18" height="17.9648" fill="white" transform="translate(0.0419922 0.0175781)"/>
</clipPath>
</defs>
</svg>
