<svg width="20" height="14" viewBox="0 0 20 14" fill="none" xmlns="http://www.w3.org/2000/svg">
<path fill-rule="evenodd" clip-rule="evenodd" d="M0.25 0.75C0.25 0.335786 0.585786 0 1 0H19C19.4142 0 19.75 0.335786 19.75 0.75C19.75 1.16421 19.4142 1.5 19 1.5H1C0.585786 1.5 0.25 1.16421 0.25 0.75Z" fill="#4C4C4C"/>
<path fill-rule="evenodd" clip-rule="evenodd" d="M0.25 6.75C0.25 6.33579 0.585786 6 1 6H19C19.4142 6 19.75 6.33579 19.75 6.75C19.75 7.16421 19.4142 7.5 19 7.5H1C0.585786 7.5 0.25 7.16421 0.25 6.75Z" fill="#4C4C4C"/>
<path fill-rule="evenodd" clip-rule="evenodd" d="M0.25 12.75C0.25 12.3358 0.585786 12 1 12H19C19.4142 12 19.75 12.3358 19.75 12.75C19.75 13.1642 19.4142 13.5 19 13.5H1C0.585786 13.5 0.25 13.1642 0.25 12.75Z" fill="#4C4C4C"/>
</svg>
