<svg width="19" height="18" viewBox="0 0 19 18" fill="none" xmlns="http://www.w3.org/2000/svg">
<g clip-path="url(#clip0)">
<path d="M15.9192 7.55349C15.9409 5.01571 13.7794 2.68924 11.101 2.36753C11.0478 2.36122 10.9897 2.3516 10.9283 2.34143C10.7957 2.31946 10.6586 2.29688 10.5202 2.29688C9.97129 2.29688 9.82455 2.68248 9.78592 2.91245C9.74836 3.13605 9.78419 3.32382 9.89225 3.47079C10.074 3.71798 10.3939 3.76186 10.6508 3.79702C10.7261 3.80742 10.7972 3.81709 10.8566 3.83045C13.2631 4.36816 14.0733 5.21354 14.4693 7.59949C14.479 7.6578 14.4834 7.72963 14.488 7.80582C14.5053 8.09103 14.5413 8.68441 15.1792 8.68441H15.1793C15.2324 8.68441 15.2895 8.67983 15.3489 8.67077C15.9429 8.58049 15.9243 8.03809 15.9154 7.77748C15.9129 7.70408 15.9104 7.63465 15.9167 7.58848C15.9183 7.57685 15.9192 7.56517 15.9192 7.55349Z" fill="#888888"/>
<path d="M10.3644 1.43598C10.4357 1.44112 10.5031 1.44604 10.5593 1.45465C14.5109 2.06234 16.3282 3.93457 16.8318 7.91704C16.8403 7.98473 16.8417 8.0673 16.8431 8.15473C16.8481 8.46587 16.8584 9.11314 17.5536 9.12656L17.5751 9.12678C17.7931 9.12678 17.9666 9.06104 18.0906 8.93124C18.307 8.7049 18.2919 8.36866 18.2797 8.09843C18.2767 8.03214 18.2739 7.9697 18.2746 7.91502C18.3249 3.84199 14.7992 0.148584 10.7298 0.011236C10.7129 0.010677 10.6968 0.0115714 10.6806 0.0138634C10.6726 0.0150373 10.6578 0.0164907 10.6324 0.0164907C10.5918 0.0164907 10.5419 0.0129689 10.4889 0.0093913C10.4249 0.00503106 10.3524 0 10.2788 0C9.63075 0 9.50754 0.460621 9.49178 0.735205C9.45544 1.36979 10.0693 1.41445 10.3644 1.43598Z" fill="#888888"/>
<path d="M16.6415 13.0643C16.5575 13.0001 16.4706 12.9337 16.3893 12.8682C15.9578 12.521 15.4988 12.201 15.0549 11.8915C14.9628 11.8273 14.8707 11.7631 14.7789 11.6987C14.2102 11.2992 13.699 11.1052 13.2161 11.1052C12.5655 11.1052 11.9984 11.4646 11.5303 12.1734C11.3229 12.4876 11.0713 12.6404 10.7612 12.6404C10.5778 12.6404 10.3695 12.588 10.142 12.4848C8.30664 11.6525 6.99605 10.3764 6.24659 8.69193C5.8843 7.87779 6.00175 7.34562 6.63935 6.9125C7.00142 6.66676 7.67535 6.20927 7.62761 5.3332C7.57356 4.33834 5.37845 1.34491 4.45358 1.00493C4.06199 0.860926 3.65057 0.859584 3.22852 1.00157C2.16529 1.359 1.4023 1.98671 1.02184 2.81672C0.65418 3.61873 0.670783 4.56043 1.06986 5.54003C2.22353 8.37229 3.84555 10.8416 5.89101 12.8794C7.89314 14.8741 10.3539 16.5081 13.205 17.7358C13.462 17.8463 13.7315 17.9066 13.9283 17.9506C13.9954 17.9657 14.0533 17.9786 14.0955 17.9902C14.1187 17.9965 14.1427 17.9999 14.1666 18.0001L14.1892 18.0002C14.1892 18.0002 14.1892 18.0002 14.1893 18.0002C15.5302 18.0002 17.1403 16.7749 17.6348 15.3779C18.0681 14.1547 17.2771 13.5501 16.6415 13.0643Z" fill="#888888"/>
<path d="M10.9578 4.67139C10.7283 4.6772 10.2505 4.68905 10.0828 5.17567C10.0044 5.40307 10.0138 5.60051 10.1108 5.76251C10.2531 6.0002 10.5258 6.07304 10.7738 6.11301C11.6733 6.25734 12.1353 6.75475 12.2277 7.67823C12.2706 8.10883 12.5606 8.40952 12.9329 8.40952H12.9329C12.9604 8.40952 12.9885 8.4079 13.0165 8.40449C13.4643 8.35121 13.6814 8.02224 13.6618 7.42678C13.6689 6.80534 13.3437 6.09982 12.7905 5.53785C12.2355 4.97415 11.5664 4.65669 10.9578 4.67139Z" fill="#888888"/>
</g>
<defs>
<clipPath id="clip0">
<rect width="18" height="18" fill="white" transform="translate(0.521484)"/>
</clipPath>
</defs>
</svg>
