<svg width="18" height="18" viewBox="0 0 18 18" fill="none" xmlns="http://www.w3.org/2000/svg">
<g clip-path="url(#clip0)">
<path d="M17.9046 13.1395C17.8828 13.0925 17.8625 13.0536 17.8436 13.0224C17.5313 12.4599 16.9345 11.7695 16.0536 10.951L16.0349 10.9323L16.0256 10.9231L16.0162 10.9137H16.0068C15.6069 10.5325 15.3538 10.2763 15.2477 10.1451C15.0537 9.89513 15.0103 9.64215 15.1163 9.38581C15.1912 9.19214 15.4726 8.78314 15.9598 8.15825C16.216 7.82707 16.419 7.56165 16.5689 7.36168C17.6499 5.92459 18.1185 5.00627 17.9747 4.60636L17.9189 4.5129C17.8814 4.45664 17.7845 4.40517 17.6285 4.35823C17.4721 4.31139 17.2723 4.30364 17.0285 4.33486L14.3295 4.3535C14.2858 4.33801 14.2234 4.33945 14.142 4.35823C14.0608 4.377 14.0201 4.38643 14.0201 4.38643L13.9732 4.4099L13.9359 4.43809C13.9046 4.45674 13.8703 4.48953 13.8327 4.5364C13.7954 4.58312 13.7642 4.63793 13.7392 4.7004C13.4454 5.4564 13.1113 6.15929 12.7363 6.80903C12.5051 7.19647 12.2928 7.53224 12.0989 7.81654C11.9053 8.10074 11.7428 8.31013 11.6117 8.44435C11.4804 8.57871 11.3619 8.68634 11.2555 8.76765C11.1493 8.84899 11.0682 8.88336 11.012 8.87078C10.9557 8.85821 10.9027 8.84574 10.8525 8.83326C10.7651 8.777 10.6948 8.70049 10.6418 8.60365C10.5885 8.50682 10.5527 8.38494 10.5339 8.23811C10.5153 8.09118 10.5043 7.96481 10.5011 7.85855C10.4982 7.75243 10.4995 7.60232 10.5059 7.40865C10.5124 7.21488 10.5153 7.08378 10.5153 7.01504C10.5153 6.77758 10.5199 6.51987 10.5292 6.24184C10.5387 5.96381 10.5463 5.74352 10.5527 5.58123C10.5591 5.41878 10.562 5.24691 10.562 5.06571C10.562 4.88452 10.551 4.74242 10.5292 4.63928C10.5077 4.53627 10.4746 4.43629 10.4311 4.33935C10.3872 4.24252 10.3231 4.16761 10.2389 4.11444C10.1546 4.06132 10.0498 4.01918 9.92498 3.98786C9.59381 3.91292 9.1721 3.87238 8.65967 3.86608C7.49762 3.85361 6.75094 3.92864 6.4198 4.0911C6.2886 4.15973 6.16987 4.25352 6.06371 4.37215C5.95122 4.50965 5.93553 4.58469 6.01674 4.59703C6.39167 4.6532 6.6571 4.78755 6.81331 4.99996L6.86961 5.11252C6.9134 5.19373 6.95712 5.33751 7.00088 5.54365C7.04457 5.74979 7.07276 5.97783 7.08517 6.22763C7.11635 6.6838 7.11635 7.07429 7.08517 7.39913C7.05389 7.7241 7.02435 7.97708 6.99615 8.15828C6.96795 8.33947 6.9258 8.4863 6.86961 8.59873C6.81331 8.71119 6.77586 8.77992 6.75708 8.80487C6.73834 8.82982 6.72271 8.84554 6.71031 8.85171C6.6291 8.88283 6.54464 8.89869 6.45722 8.89869C6.36968 8.89869 6.26352 8.8549 6.13859 8.76739C6.01369 8.67987 5.88406 8.55967 5.74971 8.40657C5.61535 8.25344 5.46383 8.03945 5.29508 7.76457C5.12645 7.48969 4.9515 7.16482 4.7703 6.78996L4.62039 6.5181C4.52667 6.34321 4.39865 6.08855 4.2362 5.75435C4.07365 5.42003 3.92997 5.09663 3.80507 4.78424C3.75515 4.65303 3.68014 4.55315 3.58019 4.48441L3.53328 4.45621C3.5021 4.43127 3.45204 4.40477 3.38337 4.37655C3.3146 4.34835 3.24284 4.32813 3.1678 4.31569L0.599915 4.33433C0.337509 4.33433 0.159465 4.39378 0.0657162 4.51251L0.0281969 4.56867C0.00945368 4.59995 0 4.64991 0 4.71868C0 4.78742 0.0187432 4.87178 0.0562625 4.97167C0.431127 5.8527 0.838784 6.70238 1.27923 7.52085C1.71968 8.33931 2.10243 8.99861 2.42723 9.49814C2.7521 9.99804 3.08325 10.4698 3.42066 10.9133C3.75807 11.3569 3.98141 11.6412 4.09069 11.7661C4.20009 11.8913 4.28603 11.9848 4.3485 12.0473L4.58284 12.2722C4.73278 12.4222 4.95297 12.6018 5.24351 12.811C5.53411 13.0204 5.85583 13.2266 6.20883 13.4298C6.5619 13.6327 6.97265 13.7983 7.44129 13.9263C7.90987 14.0545 8.36595 14.1059 8.80958 14.0811H9.88737C10.1059 14.0622 10.2716 13.9935 10.3841 13.8749L10.4214 13.8279C10.4465 13.7906 10.4699 13.7327 10.4916 13.6547C10.5135 13.5766 10.5244 13.4906 10.5244 13.397C10.518 13.1284 10.5385 12.8863 10.5852 12.6708C10.6319 12.4553 10.6852 12.2929 10.7447 12.1834C10.8042 12.0741 10.8714 11.9819 10.9461 11.9071C11.0211 11.8322 11.0744 11.7868 11.1057 11.7712C11.1369 11.7554 11.1617 11.7448 11.1805 11.7384C11.3304 11.6884 11.5069 11.7368 11.7101 11.8837C11.9132 12.0306 12.1037 12.2119 12.2819 12.4273C12.4599 12.643 12.6739 12.885 12.9238 13.1536C13.1738 13.4223 13.3924 13.622 13.5798 13.7534L13.7671 13.8659C13.8923 13.9409 14.0547 14.0096 14.2547 14.0721C14.4543 14.1345 14.6292 14.1502 14.7794 14.119L17.1785 14.0815C17.4158 14.0815 17.6004 14.0422 17.7314 13.9643C17.8626 13.8862 17.9406 13.8002 17.9657 13.7066C17.9908 13.6129 17.9922 13.5066 17.9705 13.3878C17.9483 13.2692 17.9264 13.1864 17.9046 13.1395Z" fill="#888888"/>
</g>
<defs>
<clipPath id="clip0">
<rect width="18" height="18" fill="white"/>
</clipPath>
</defs>
</svg>
