<svg width="19" height="18" viewBox="0 0 19 18" fill="none" xmlns="http://www.w3.org/2000/svg">
<g clip-path="url(#clip0)">
<path fill-rule="evenodd" clip-rule="evenodd" d="M9.46421 0C5.75448 0.000352627 3.18395 0.0126946 1.86448 1.30119C0.576051 2.62037 0.563707 5.31161 0.563707 8.90066C4.54893 8.7804 6.37136 8.68061 7.82486 7.26127C9.24412 5.80778 9.34394 3.98539 9.46421 0ZM1.86425 16.6989C0.575821 15.3798 0.563477 12.6885 0.563477 9.09949C4.54871 9.21975 6.37113 9.31954 7.82463 10.7389C9.24389 12.1924 9.34372 14.0148 9.46398 17.9998C5.75426 17.9998 3.18372 17.9878 1.86425 16.6989ZM9.66292 17.9998C9.78318 14.0148 9.88301 12.1924 11.3023 10.7389C12.7558 9.31954 14.5782 9.21975 18.5634 9.09949C18.5631 12.6885 18.5507 15.3798 17.2623 16.6989C15.9428 17.9878 13.3727 17.9998 9.66292 17.9998ZM9.66292 0C9.78318 3.98539 9.88301 5.80778 11.3023 7.26127C12.7558 8.68061 14.5782 8.7804 18.5634 8.90066C18.5631 5.31161 18.5507 2.62037 17.2623 1.30119C15.9428 0.0126946 13.3727 0.000352627 9.66292 0Z" fill="#888888"/>
<path fill-rule="evenodd" clip-rule="evenodd" d="M11.3023 10.7389C9.88301 12.1924 9.78318 14.0148 9.66292 17.9998C13.3727 17.9998 15.9428 17.9878 17.2623 16.6989C18.5507 15.3798 18.5631 12.6885 18.5634 9.09949C14.5782 9.21975 12.7558 9.31954 11.3023 10.7389ZM0.563477 9.09949C0.563477 12.6885 0.575821 15.3798 1.86425 16.6989C3.18372 17.9878 5.75426 17.9998 9.46398 17.9998C9.34372 14.0148 9.24389 12.1924 7.82463 10.7389C6.37113 9.31954 4.54871 9.21975 0.563477 9.09949ZM9.46421 0C5.75448 0.000352627 3.18395 0.0126946 1.86448 1.30119C0.576051 2.62037 0.563707 5.31161 0.563707 8.90066C4.54893 8.7804 6.37136 8.68061 7.82486 7.26127C9.24412 5.80778 9.34394 3.98539 9.46421 0ZM11.3023 7.26127C9.88301 5.80778 9.78318 3.98539 9.66292 0C13.3727 0.000352627 15.9428 0.0126946 17.2623 1.30119C18.5507 2.62037 18.5631 5.31161 18.5634 8.90066C14.5782 8.7804 12.7558 8.68061 11.3023 7.26127Z" fill="url(#paint0_linear)"/>
<path fill-rule="evenodd" clip-rule="evenodd" d="M18.5634 9.10017V9.00072V8.90161C14.5782 8.78101 12.7558 8.6816 11.3023 7.26192C9.88301 5.80872 9.78319 3.98637 9.66293 0.000976562H9.56344H9.46399C9.34373 3.98637 9.2439 5.80872 7.8246 7.26192C6.3711 8.6816 4.54868 8.78101 0.563477 8.90161V9.00072V9.10017C4.54868 9.22074 6.3711 9.32019 7.8246 10.7395C9.2439 12.1931 9.34373 14.0154 9.46399 18.0008H9.56344H9.66293C9.78319 14.0154 9.88301 12.1931 11.3023 10.7395C12.7558 9.32019 14.5782 9.22074 18.5634 9.10017Z" fill="white"/>
</g>
<defs>
<linearGradient id="paint0_linear" x1="18.5634" y1="17.9998" x2="18.5634" y2="0" gradientUnits="userSpaceOnUse">
<stop stop-color="white" stop-opacity="0.01"/>
<stop offset="0.47509" stop-color="white" stop-opacity="0.01"/>
<stop offset="0.76042" stop-color="white" stop-opacity="0.04271"/>
<stop offset="0.99531" stop-color="white" stop-opacity="0.09855"/>
<stop offset="1" stop-color="white" stop-opacity="0.1"/>
</linearGradient>
<clipPath id="clip0">
<rect width="18" height="18" fill="white" transform="translate(0.563477)"/>
</clipPath>
</defs>
</svg>
